<svg xmlns="http://www.w3.org/2000/svg" xmlns:xlink="http://www.w3.org/1999/xlink" width="700" zoomAndPan="magnify" viewBox="0 0 525 149.999998" height="200" preserveAspectRatio="xMidYMid meet" version="1.0"><defs><clipPath id="c74342cbb7"><path d="M 415.328125 42.8125 L 471 42.8125 L 471 100 L 415.328125 100 Z M 415.328125 42.8125 " clip-rule="nonzero"/></clipPath><clipPath id="ba1052eb39"><path d="M 415.328125 42.8125 L 446.671875 42.8125 L 470.984375 71.347656 L 446.671875 99.886719 L 415.328125 99.886719 L 439.640625 71.347656 L 415.328125 42.8125 " clip-rule="nonzero"/></clipPath><clipPath id="065d85e6a2"><path d="M 454.347656 42.8125 L 510 42.8125 L 510 100 L 454.347656 100 Z M 454.347656 42.8125 " clip-rule="nonzero"/></clipPath><clipPath id="ee805e0196"><path d="M 454.347656 42.8125 L 485.6875 42.8125 L 510 71.347656 L 485.6875 99.886719 L 454.347656 99.886719 L 478.660156 71.347656 L 454.347656 42.8125 " clip-rule="nonzero"/></clipPath></defs><path stroke-linecap="butt" transform="matrix(0.75, 0, 0, 0.75, 20.884954, 22.507944)" fill="none" stroke-linejoin="miter" d="M 13.122145 98.999831 L 22.606521 98.999831 C 28.231521 98.999831 32.653396 94.577956 32.653396 88.926914 L 32.653396 69.093579 L 19.976312 69.093579 L 19.976312 86.223788 C 19.976312 87.426913 19.064854 88.333164 17.861729 88.333164 C 16.658603 88.333164 15.747145 87.426913 15.747145 86.223788 L 15.747145 41.228994 C 15.747145 40.025869 16.658603 39.114411 17.861729 39.114411 C 19.064854 39.114411 19.976312 40.025869 19.976312 41.228994 L 19.976312 58.43212 L 32.653396 58.43212 L 32.653396 38.598786 C 32.653396 32.973785 28.231521 28.55191 22.606521 28.55191 L 13.122145 28.55191 C 7.491936 28.55191 3.070061 32.973785 3.070061 38.598786 L 3.070061 88.926914 C 3.070061 94.577956 7.491936 98.999831 13.122145 98.999831 Z M 48.747147 98.999831 L 58.231523 98.999831 C 63.856523 98.999831 68.283607 94.577956 68.283607 88.926914 L 68.283607 38.598786 C 68.283607 32.973785 63.856523 28.55191 58.231523 28.55191 L 48.747147 28.55191 C 43.116938 28.55191 38.695063 32.973785 38.695063 38.598786 L 38.695063 88.926914 C 38.695063 94.577956 43.116938 98.999831 48.747147 98.999831 Z M 53.486731 88.333164 C 52.283606 88.333164 51.377356 87.426913 51.377356 86.223788 L 51.377356 41.228994 C 51.377356 40.025869 52.283606 39.114411 53.486731 39.114411 C 54.695064 39.114411 55.601314 40.025869 55.601314 41.228994 L 55.601314 86.223788 C 55.601314 87.426913 54.695064 88.333164 53.486731 88.333164 Z M 74.325274 98.999831 L 87.002358 98.999831 L 87.002358 67.791496 L 91.939858 98.999831 L 103.908609 98.999831 L 103.908609 28.55191 L 91.132566 28.55191 L 91.132566 59.755037 L 86.090899 28.55191 L 74.325274 28.55191 Z M 118.502359 98.999831 L 127.960693 98.999831 C 133.590902 98.999831 138.038819 94.577956 138.038819 88.926914 L 138.038819 73.739413 C 138.038819 68.994621 136.413819 64.770662 132.382569 62.265454 L 123.637776 56.317537 C 122.012776 55.21337 121.132568 53.911287 121.132568 51.499828 L 121.132568 41.228994 C 121.132568 40.025869 122.012776 39.114411 123.241943 39.114411 C 124.445068 39.114411 125.356527 40.025869 125.356527 41.228994 L 125.356527 52.702953 L 138.038819 52.702953 L 138.038819 38.598786 C 138.038819 32.973785 133.590902 28.55191 127.960693 28.55191 L 118.502359 28.55191 C 112.872151 28.55191 108.424234 32.973785 108.424234 38.598786 L 108.424234 52.801911 C 108.424234 58.749828 109.950276 62.656079 114.273193 65.484204 L 123.122151 71.723788 C 125.038818 72.926913 125.356527 74.130038 125.356527 76.244621 L 125.356527 86.223788 C 125.356527 87.426913 124.445068 88.333164 123.241943 88.333164 C 122.012776 88.333164 121.132568 87.426913 121.132568 86.223788 L 121.132568 74.843579 L 108.424234 74.843579 L 108.424234 88.926914 C 108.424234 94.577956 112.872151 98.999831 118.502359 98.999831 Z M 142.559653 98.999831 L 155.236737 98.999831 L 155.236737 28.55191 L 142.559653 28.55191 Z M 161.278404 98.999831 L 180.809655 98.999831 C 186.439863 98.999831 190.861739 94.577956 190.861739 88.926914 L 190.861739 38.598786 C 190.861739 32.973785 186.439863 28.55191 180.809655 28.55191 L 161.278404 28.55191 Z M 173.955488 88.333164 L 173.955488 39.114411 L 176.070071 39.114411 C 177.273196 39.114411 178.184655 40.025869 178.184655 41.228994 L 178.184655 86.223788 C 178.184655 87.426913 177.273196 88.333164 176.070071 88.333164 Z M 229.096116 98.999831 L 238.580491 98.999831 C 244.205492 98.999831 248.627367 94.577956 248.627367 88.926914 L 248.627367 69.093579 L 235.950283 69.093579 L 235.950283 86.223788 C 235.950283 87.426913 235.038825 88.333164 233.835699 88.333164 C 232.632574 88.333164 231.721116 87.426913 231.721116 86.223788 L 231.721116 41.228994 C 231.721116 40.025869 232.632574 39.114411 233.835699 39.114411 C 235.038825 39.114411 235.950283 40.025869 235.950283 41.228994 L 235.950283 58.43212 L 248.627367 58.43212 L 248.627367 38.598786 C 248.627367 32.973785 244.205492 28.55191 238.580491 28.55191 L 229.096116 28.55191 C 223.465907 28.55191 219.044032 32.973785 219.044032 38.598786 L 219.044032 88.926914 C 219.044032 94.577956 223.465907 98.999831 229.096116 98.999831 Z M 264.721118 98.999831 L 274.205494 98.999831 C 279.835702 98.999831 284.257577 94.577956 284.257577 88.926914 L 284.257577 38.598786 C 284.257577 32.973785 279.835702 28.55191 274.205494 28.55191 L 264.721118 28.55191 C 259.096118 28.55191 254.669034 32.973785 254.669034 38.598786 L 254.669034 88.926914 C 254.669034 94.577956 259.096118 98.999831 264.721118 98.999831 Z M 269.46591 88.333164 C 268.257577 88.333164 267.351326 87.426913 267.351326 86.223788 L 267.351326 41.228994 C 267.351326 40.025869 268.257577 39.114411 269.46591 39.114411 C 270.669035 39.114411 271.575285 40.025869 271.575285 41.228994 L 271.575285 86.223788 C 271.575285 87.426913 270.669035 88.333164 269.46591 88.333164 Z M 290.299244 98.999831 L 302.976329 98.999831 L 302.976329 60.051912 L 307.913829 98.999831 L 314.648204 98.999831 L 319.684663 60.051912 L 319.684663 98.999831 L 332.366955 98.999831 L 332.366955 28.55191 L 316.273204 28.55191 L 311.330496 59.952954 L 306.392995 28.55191 L 290.299244 28.55191 Z M 338.403414 98.999831 L 351.085706 98.999831 L 351.085706 60.051912 L 356.023207 98.999831 L 362.757582 98.999831 L 367.794041 60.051912 L 367.794041 98.999831 L 380.471125 98.999831 L 380.471125 28.55191 L 364.377374 28.55191 L 359.439873 59.952954 L 354.497165 28.55191 L 338.403414 28.55191 Z M 386.507583 98.999831 L 413.169043 98.999831 L 413.169043 88.333164 L 399.189876 88.333164 L 399.189876 68.900871 L 409.143001 68.900871 L 409.143001 58.234203 L 399.189876 58.234203 L 399.189876 39.213369 L 413.169043 39.213369 L 413.169043 28.55191 L 386.507583 28.55191 Z M 417.71071 98.999831 L 430.387794 98.999831 L 430.387794 76.046704 L 434.616961 76.046704 L 434.616961 98.999831 L 447.294045 98.999831 L 447.294045 78.06233 C 446.99717 74.551913 444.887795 71.723788 441.762795 70.223787 C 444.887795 68.900871 446.99717 65.874829 447.294045 62.364412 L 447.294045 38.598786 C 447.294045 32.973785 442.87217 28.55191 437.241961 28.55191 L 417.71071 28.55191 Z M 430.387794 65.385246 L 430.387794 39.114411 L 432.502378 39.114411 C 433.705503 39.114411 434.616961 40.025869 434.616961 41.228994 L 434.616961 63.270662 C 434.616961 64.473787 433.705503 65.385246 432.502378 65.385246 Z M 463.387796 98.999831 L 472.872172 98.999831 C 478.497172 98.999831 482.919047 94.577956 482.919047 88.926914 L 482.919047 69.093579 L 470.241963 69.093579 L 470.241963 86.223788 C 470.241963 87.426913 469.330505 88.333164 468.12738 88.333164 C 466.924255 88.333164 466.012796 87.426913 466.012796 86.223788 L 466.012796 41.228994 C 466.012796 40.025869 466.924255 39.114411 468.12738 39.114411 C 469.330505 39.114411 470.241963 40.025869 470.241963 41.228994 L 470.241963 58.43212 L 482.919047 58.43212 L 482.919047 38.598786 C 482.919047 32.973785 478.497172 28.55191 472.872172 28.55191 L 463.387796 28.55191 C 457.757588 28.55191 453.335712 32.973785 453.335712 38.598786 L 453.335712 88.926914 C 453.335712 94.577956 457.757588 98.999831 463.387796 98.999831 Z M 488.960714 98.999831 L 515.622174 98.999831 L 515.622174 88.333164 L 501.643007 88.333164 L 501.643007 68.900871 L 511.590924 68.900871 L 511.590924 58.234203 L 501.643007 58.234203 L 501.643007 39.213369 L 515.622174 39.213369 L 515.622174 28.55191 L 488.960714 28.55191 Z M 488.960714 98.999831 " stroke="#ffffff" stroke-width="3.145594" stroke-opacity="1" stroke-miterlimit="4"/><g clip-path="url(#c74342cbb7)"><g clip-path="url(#ba1052eb39)"><path fill="#ffffff" d="M 415.328125 42.8125 L 471.046875 42.8125 L 471.046875 100.046875 L 415.328125 100.046875 Z M 415.328125 42.8125 " fill-opacity="1" fill-rule="nonzero"/></g></g><g clip-path="url(#065d85e6a2)"><g clip-path="url(#ee805e0196)"><path fill="#ffffff" d="M 454.347656 42.8125 L 510.0625 42.8125 L 510.0625 100.046875 L 454.347656 100.046875 Z M 454.347656 42.8125 " fill-opacity="1" fill-rule="nonzero"/></g></g></svg>